<svg xmlns="http://www.w3.org/2000/svg" xmlns:xlink="http://www.w3.org/1999/xlink" width="74" height="74" viewBox="0 0 74 74">
  <defs>
    <clipPath id="clip-path">
      <rect id="矩形_1584" data-name="矩形 1584" width="46.41" height="46.41" fill="#f69246" stroke="#707070" stroke-width="1"/>
    </clipPath>
  </defs>
  <g id="wdqb_btc" transform="translate(0 0.469)">
    <g id="组_293" data-name="组 293" transform="translate(0 -0.469)">
      <g id="矩形_1583" data-name="矩形 1583" fill="#fff" stroke="#f69246" stroke-width="1">
        <rect width="74" height="74" rx="37" stroke="none"/>
        <rect x="0.5" y="0.5" width="73" height="73" rx="36.5" fill="none"/>
      </g>
      <g id="蒙版组_164" data-name="蒙版组 164" transform="translate(13.112 13.615)" clip-path="url(#clip-path)">
        <path id="比特币_2_" data-name="比特币 (2)" d="M27.751,21.94a9.373,9.373,0,0,0,1.7-5.43c0-4.923-3.669-8.911-8.195-8.911H19.948V.711A.712.712,0,0,0,19.238,0H16.86a.712.712,0,0,0-.711.711V7.6h-3.8V.711A.712.712,0,0,0,11.639,0H9.261A.712.712,0,0,0,8.55.711V7.6H.711A.712.712,0,0,0,0,8.31v2.4a.711.711,0,0,0,.638.716,4.156,4.156,0,0,1,4.113,4.249V30.406a3.45,3.45,0,0,1-3.261,3.779.717.717,0,0,0-.643.57L.392,37.179a.7.7,0,0,0,.69.831H8.55V44.9a.712.712,0,0,0,.711.711h2.378a.712.712,0,0,0,.711-.711V38.015h3.8V44.9a.712.712,0,0,0,.711.711h2.378a.712.712,0,0,0,.711-.711V38.015h3.209c4.526,0,8.195-3.935,8.195-8.79A8.977,8.977,0,0,0,27.751,21.94ZM12.344,13.3h5.822a3.92,3.92,0,0,1,0,7.839H12.344Zm7.719,19.248H12.339V24.709h7.724a3.92,3.92,0,0,1,0,7.839Z" transform="translate(7.529 0.398)" fill="#f69246"/>
      </g>
    </g>
  </g>
</svg>
